<svg xmlns="http://www.w3.org/2000/svg" viewBox="0 0 1200 1000" width="1200" height="1000">
  <rect width="1200" height="1000" fill="#1a1a2e"/>

  <text x="600" y="34" text-anchor="middle" font-family="Inter,sans-serif" font-size="14" font-weight="700" fill="#d4af37" letter-spacing="6">— CONJUGATION DRILL · SPANISH —</text>

  <text x="160" y="64" text-anchor="middle" font-family="Inter,sans-serif" font-size="11" font-weight="700" fill="#c9b037" letter-spacing="3">FRONT</text>
  <text x="800" y="64" text-anchor="middle" font-family="Inter,sans-serif" font-size="11" font-weight="700" fill="#c9b037" letter-spacing="3">BACK</text>

  <g transform="translate(40 80)">
    <rect width="560" height="900" rx="8" fill="#161629" stroke="#d4af37" stroke-width="1.2"/>
    <text x="20" y="22" font-family="Menlo,Consolas,monospace" font-size="11" fill="#d4af37" opacity="0.75">Q-S-V-0001</text>
<g transform="translate(432 6)"><rect width="118" height="22" rx="11" fill="#2a2348" stroke="#d4af37" stroke-width="1"/><text x="59" y="15" text-anchor="middle" font-family="Inter,sans-serif" font-size="11" fill="#d4af37" font-weight="700" letter-spacing="0.5">CONJUGATION</text></g>
<line x1="14" y1="42" x2="546" y2="42" stroke="#d4af37" stroke-width="0.6" opacity="0.65"/>
<text x="14" y="64" font-family="Inter,sans-serif" font-size="11" fill="#c9b037" font-weight="700" letter-spacing="1.2">VERB:</text>
<text x="54" y="64" font-family="Georgia,serif" font-size="14" fill="#f0e6d3">hablar → present 1sg</text>
<text x="14" y="84" font-family="Inter,sans-serif" font-size="10" fill="#c9b037" font-weight="700" letter-spacing="1.2">USE:</text>
<text x="48" y="84" font-family="Georgia,serif" font-size="13" fill="#f0e6d3" font-style="italic">present 1sg</text>
<rect x="14" y="100" width="532" height="80" rx="4" fill="#1f1f38"/><rect x="14" y="100" width="3" height="80" rx="1.5" fill="#d4af37"/>
<text x="26" y="132" font-family="Georgia,serif" font-size="14" fill="#f0e6d3">Normalmente <tspan fill="#d4af37" font-weight="700">____</tspan> con mi madre por teléfono todos los domingos por la tarde.</text>
<text x="26" y="166" font-family="Georgia,serif" font-size="11" fill="#a8a4b8" font-style="italic">I usually talk to my mother on the phone every Sunday afternoon.</text>
<text x="14" y="208" font-family="Georgia,serif" font-size="12" fill="#c9b037" font-style="italic">Which fits?</text>
<rect x="14" y="222" width="532" height="36" rx="4" fill="#1f1f38" stroke="none" stroke-width="0"/>
<circle cx="36" cy="240" r="13" fill="#d4af37"/>
<text x="36" y="245" text-anchor="middle" font-family="Inter,sans-serif" font-size="12" font-weight="800" fill="#1a1a2e">A</text>
<text x="58" y="245" font-family="Inter,sans-serif" font-size="13" fill="#f0e6d3" >hablo</text>
<rect x="14" y="264" width="532" height="36" rx="4" fill="#1f1f38" stroke="none" stroke-width="0"/>
<circle cx="36" cy="282" r="13" fill="#d4af37"/>
<text x="36" y="287" text-anchor="middle" font-family="Inter,sans-serif" font-size="12" font-weight="800" fill="#1a1a2e">B</text>
<text x="58" y="287" font-family="Inter,sans-serif" font-size="13" fill="#f0e6d3" >hablas</text>
<rect x="14" y="306" width="532" height="36" rx="4" fill="#1f1f38" stroke="none" stroke-width="0"/>
<circle cx="36" cy="324" r="13" fill="#d4af37"/>
<text x="36" y="329" text-anchor="middle" font-family="Inter,sans-serif" font-size="12" font-weight="800" fill="#1a1a2e">C</text>
<text x="58" y="329" font-family="Inter,sans-serif" font-size="13" fill="#f0e6d3" >hablan</text>
<rect x="14" y="348" width="532" height="36" rx="4" fill="#1f1f38" stroke="none" stroke-width="0"/>
<circle cx="36" cy="366" r="13" fill="#d4af37"/>
<text x="36" y="371" text-anchor="middle" font-family="Inter,sans-serif" font-size="12" font-weight="800" fill="#1a1a2e">D</text>
<text x="58" y="371" font-family="Inter,sans-serif" font-size="13" fill="#f0e6d3" >habla</text>
  </g>
  <g transform="translate(620 80)">
    <rect width="560" height="900" rx="8" fill="#161629" stroke="#d4af37" stroke-width="1.2"/>
    <text x="20" y="22" font-family="Menlo,Consolas,monospace" font-size="11" fill="#d4af37" opacity="0.75">Q-S-V-0001</text>
<g transform="translate(432 6)"><rect width="118" height="22" rx="11" fill="#2a2348" stroke="#d4af37" stroke-width="1"/><text x="59" y="15" text-anchor="middle" font-family="Inter,sans-serif" font-size="11" fill="#d4af37" font-weight="700" letter-spacing="0.5">CONJUGATION</text></g>
<line x1="14" y1="42" x2="546" y2="42" stroke="#d4af37" stroke-width="0.6" opacity="0.65"/>
<text x="14" y="64" font-family="Inter,sans-serif" font-size="11" fill="#c9b037" font-weight="700" letter-spacing="1.2">VERB:</text>
<text x="54" y="64" font-family="Georgia,serif" font-size="14" fill="#f0e6d3">hablar → present 1sg</text>
<text x="14" y="84" font-family="Inter,sans-serif" font-size="10" fill="#c9b037" font-weight="700" letter-spacing="1.2">USE:</text>
<text x="48" y="84" font-family="Georgia,serif" font-size="13" fill="#f0e6d3" font-style="italic">present 1sg</text>
<rect x="14" y="100" width="532" height="80" rx="4" fill="#1f1f38"/><rect x="14" y="100" width="3" height="80" rx="1.5" fill="#d4af37"/>
<text x="26" y="128" font-family="Georgia,serif" font-size="14" fill="#f0e6d3">Normalmente hablo con mi madre por teléfono todos los domingos por la</text>
<text x="26" y="148" font-family="Georgia,serif" font-size="14" fill="#f0e6d3">tarde.</text>
<text x="26" y="166" font-family="Georgia,serif" font-size="11" fill="#a8a4b8" font-style="italic">I usually talk to my mother on the phone every Sunday afternoon.</text>
<rect x="14" y="222" width="532" height="36" rx="4" fill="#1a2e26" stroke="#4ec27e" stroke-width="1"/>
<circle cx="36" cy="240" r="13" fill="#4ec27e"/>
<text x="36" y="245" text-anchor="middle" font-family="Inter,sans-serif" font-size="12" font-weight="800" fill="#1a1a2e">A</text>
<text x="58" y="245" font-family="Inter,sans-serif" font-size="13" fill="#d4af37" font-weight="700">hablo</text>
<text x="525" y="245" text-anchor="end" font-family="Inter,sans-serif" font-size="14" fill="#4ec27e" font-weight="800">✓</text>
<rect x="14" y="264" width="532" height="36" rx="4" fill="#1f1f38" stroke="none" stroke-width="0"/>
<circle cx="36" cy="282" r="13" fill="#d4af37"/>
<text x="36" y="287" text-anchor="middle" font-family="Inter,sans-serif" font-size="12" font-weight="800" fill="#1a1a2e">B</text>
<text x="58" y="287" font-family="Inter,sans-serif" font-size="13" fill="#f0e6d3" >hablas</text>
<rect x="14" y="306" width="532" height="36" rx="4" fill="#1f1f38" stroke="none" stroke-width="0"/>
<circle cx="36" cy="324" r="13" fill="#d4af37"/>
<text x="36" y="329" text-anchor="middle" font-family="Inter,sans-serif" font-size="12" font-weight="800" fill="#1a1a2e">C</text>
<text x="58" y="329" font-family="Inter,sans-serif" font-size="13" fill="#f0e6d3" >hablan</text>
<rect x="14" y="348" width="532" height="36" rx="4" fill="#1f1f38" stroke="none" stroke-width="0"/>
<circle cx="36" cy="366" r="13" fill="#d4af37"/>
<text x="36" y="371" text-anchor="middle" font-family="Inter,sans-serif" font-size="12" font-weight="800" fill="#1a1a2e">D</text>
<text x="58" y="371" font-family="Inter,sans-serif" font-size="13" fill="#f0e6d3" >habla</text>
<rect x="14" y="396" width="532" height="32" rx="4" fill="#1a2e26" stroke="#4ec27e" stroke-width="1"/><rect x="14" y="396" width="3" height="32" rx="1.5" fill="#4ec27e"/>
<text x="26" y="416" font-family="Inter,sans-serif" font-size="12" fill="#b6e6c8" font-weight="800">✓ ANSWER: A —</text>
<text x="170" y="416" font-family="Georgia,serif" font-size="13" fill="#f0e6d3" font-weight="700">hablo</text>
<rect x="14" y="438" width="532" height="58" rx="4" fill="#1f1f38"/><rect x="14" y="438" width="3" height="58" rx="1.5" fill="#d4af37"/>
<text x="26" y="454" font-family="Inter,sans-serif" font-size="10" fill="#d4af37" font-weight="800" letter-spacing="2">— CORE LOGIC —</text>
<text x="26" y="472" font-family="Georgia,serif" font-size="12" fill="#f0e6d3">The present indicative first-person singular is used here to</text>
<text x="26" y="488" font-family="Georgia,serif" font-size="12" fill="#f0e6d3">describe a habitual action performed by the speaker.</text>
<rect x="14" y="504" width="532" height="42" rx="4" fill="#1f1f38"/><rect x="14" y="504" width="3" height="42" rx="1.5" fill="#c9b037"/>
<text x="26" y="520" font-family="Inter,sans-serif" font-size="10" fill="#c9b037" font-weight="800" letter-spacing="2">— MEMORY AID —</text>
<text x="26" y="538" font-family="Georgia,serif" font-size="12" fill="#f0e6d3">-o = 1sg present indicative of -ar verbs.</text>
<rect x="14" y="558" width="94.8" height="22" rx="4" fill="#1f1f38" stroke="#c9b037" stroke-width="0.7"/>
<text x="21" y="573" font-family="Inter,sans-serif" font-size="9" fill="#c9b037" font-weight="700" letter-spacing="0.8">VERB:</text>
<text x="52.8" y="573" font-family="Inter,sans-serif" font-size="10" fill="#f0e6d3">hablar</text>
<rect x="114.8" y="558" width="129.8" height="22" rx="4" fill="#1f1f38" stroke="#c9b037" stroke-width="0.7"/>
<text x="121.8" y="573" font-family="Inter,sans-serif" font-size="9" fill="#c9b037" font-weight="700" letter-spacing="0.8">FORM:</text>
<text x="153.6" y="573" font-family="Inter,sans-serif" font-size="10" fill="#f0e6d3">present 1sg</text>
<rect x="250.60000000000002" y="558" width="66.8" height="22" rx="4" fill="#1f1f38" stroke="#c9b037" stroke-width="0.7"/>
<text x="257.6" y="573" font-family="Inter,sans-serif" font-size="9" fill="#c9b037" font-weight="700" letter-spacing="0.8">LANG:</text>
<text x="289.40000000000003" y="573" font-family="Inter,sans-serif" font-size="10" fill="#f0e6d3">ES</text>
  </g>
</svg>
