<svg xmlns="http://www.w3.org/2000/svg" viewBox="0 0 1200 1000" width="1200" height="1000">
  <rect width="1200" height="1000" fill="#1a1a2e"/>

  <text x="600" y="34" text-anchor="middle" font-family="Inter,sans-serif" font-size="14" font-weight="700" fill="#d4af37" letter-spacing="6">— SENTENCE-MINING CLOZE · SPANISH —</text>

  <text x="160" y="64" text-anchor="middle" font-family="Inter,sans-serif" font-size="11" font-weight="700" fill="#c9b037" letter-spacing="3">FRONT</text>
  <text x="800" y="64" text-anchor="middle" font-family="Inter,sans-serif" font-size="11" font-weight="700" fill="#c9b037" letter-spacing="3">BACK</text>

  <g transform="translate(40 80)">
    <rect width="560" height="900" rx="8" fill="#161629" stroke="#d4af37" stroke-width="1.2"/>
    <text x="20" y="22" font-family="Menlo,Consolas,monospace" font-size="11" fill="#d4af37" opacity="0.75">Q-S-S-0201</text>
<g transform="translate(400 6)"><rect width="150" height="22" rx="11" fill="#2a2348" stroke="#d4af37" stroke-width="1"/><text x="75" y="15" text-anchor="middle" font-family="Inter,sans-serif" font-size="11" fill="#d4af37" font-weight="700" letter-spacing="0.5">SENTENCE-MINING</text></g>
<line x1="14" y1="42" x2="546" y2="42" stroke="#d4af37" stroke-width="0.6" opacity="0.65"/>
<text x="14" y="64" font-family="Inter,sans-serif" font-size="11" fill="#c9b037" font-weight="700" letter-spacing="1.2">WORD:</text>
<text x="54" y="64" font-family="Georgia,serif" font-size="14" fill="#f0e6d3">ve</text>
<text x="14" y="84" font-family="Inter,sans-serif" font-size="10" fill="#c9b037" font-weight="700" letter-spacing="1.2">USE:</text>
<text x="48" y="84" font-family="Georgia,serif" font-size="13" fill="#f0e6d3" font-style="italic">to see; to look</text>
<rect x="14" y="100" width="532" height="80" rx="4" fill="#1f1f38"/><rect x="14" y="100" width="3" height="80" rx="1.5" fill="#d4af37"/>
<text x="26" y="138" font-family="Georgia,serif" font-size="15" fill="#f0e6d3">El niño <tspan fill="#d4af37" font-weight="700">____</tspan> los pájaros de colores desde la ventana de su habitación.</text>
<text x="26" y="166" font-family="Georgia,serif" font-size="11" fill="#a8a4b8" font-style="italic">The boy sees the colorful birds from his bedroom window.</text>
<text x="14" y="208" font-family="Georgia,serif" font-size="12" fill="#c9b037" font-style="italic">Which fits?</text>
<rect x="14" y="222" width="532" height="36" rx="4" fill="#1f1f38" stroke="none" stroke-width="0"/>
<circle cx="36" cy="240" r="13" fill="#d4af37"/>
<text x="36" y="245" text-anchor="middle" font-family="Inter,sans-serif" font-size="12" font-weight="800" fill="#1a1a2e">A</text>
<text x="58" y="245" font-family="Inter,sans-serif" font-size="13" fill="#f0e6d3" >ver</text>
<rect x="14" y="264" width="532" height="36" rx="4" fill="#1f1f38" stroke="none" stroke-width="0"/>
<circle cx="36" cy="282" r="13" fill="#d4af37"/>
<text x="36" y="287" text-anchor="middle" font-family="Inter,sans-serif" font-size="12" font-weight="800" fill="#1a1a2e">B</text>
<text x="58" y="287" font-family="Inter,sans-serif" font-size="13" fill="#f0e6d3" >vi</text>
<rect x="14" y="306" width="532" height="36" rx="4" fill="#1f1f38" stroke="none" stroke-width="0"/>
<circle cx="36" cy="324" r="13" fill="#d4af37"/>
<text x="36" y="329" text-anchor="middle" font-family="Inter,sans-serif" font-size="12" font-weight="800" fill="#1a1a2e">C</text>
<text x="58" y="329" font-family="Inter,sans-serif" font-size="13" fill="#f0e6d3" >caos</text>
<rect x="14" y="348" width="532" height="36" rx="4" fill="#1f1f38" stroke="none" stroke-width="0"/>
<circle cx="36" cy="366" r="13" fill="#d4af37"/>
<text x="36" y="371" text-anchor="middle" font-family="Inter,sans-serif" font-size="12" font-weight="800" fill="#1a1a2e">D</text>
<text x="58" y="371" font-family="Inter,sans-serif" font-size="13" fill="#f0e6d3" >ve</text>
  </g>
  <g transform="translate(620 80)">
    <rect width="560" height="900" rx="8" fill="#161629" stroke="#d4af37" stroke-width="1.2"/>
    <text x="20" y="22" font-family="Menlo,Consolas,monospace" font-size="11" fill="#d4af37" opacity="0.75">Q-S-S-0201</text>
<g transform="translate(400 6)"><rect width="150" height="22" rx="11" fill="#2a2348" stroke="#d4af37" stroke-width="1"/><text x="75" y="15" text-anchor="middle" font-family="Inter,sans-serif" font-size="11" fill="#d4af37" font-weight="700" letter-spacing="0.5">SENTENCE-MINING</text></g>
<line x1="14" y1="42" x2="546" y2="42" stroke="#d4af37" stroke-width="0.6" opacity="0.65"/>
<text x="14" y="64" font-family="Inter,sans-serif" font-size="11" fill="#c9b037" font-weight="700" letter-spacing="1.2">WORD:</text>
<text x="54" y="64" font-family="Georgia,serif" font-size="14" fill="#f0e6d3">ve</text>
<text x="14" y="84" font-family="Inter,sans-serif" font-size="10" fill="#c9b037" font-weight="700" letter-spacing="1.2">USE:</text>
<text x="48" y="84" font-family="Georgia,serif" font-size="13" fill="#f0e6d3" font-style="italic">to see; to look</text>
<rect x="14" y="100" width="532" height="80" rx="4" fill="#1f1f38"/><rect x="14" y="100" width="3" height="80" rx="1.5" fill="#d4af37"/>
<text x="26" y="128" font-family="Georgia,serif" font-size="14" fill="#f0e6d3">El niño ve los pájaros de colores desde la ventana de su habitación.</text>
<text x="26" y="166" font-family="Georgia,serif" font-size="11" fill="#a8a4b8" font-style="italic">The boy sees the colorful birds from his bedroom window.</text>
<rect x="14" y="222" width="532" height="36" rx="4" fill="#1f1f38" stroke="none" stroke-width="0"/>
<circle cx="36" cy="240" r="13" fill="#d4af37"/>
<text x="36" y="245" text-anchor="middle" font-family="Inter,sans-serif" font-size="12" font-weight="800" fill="#1a1a2e">A</text>
<text x="58" y="245" font-family="Inter,sans-serif" font-size="13" fill="#f0e6d3" >ver</text>
<rect x="14" y="264" width="532" height="36" rx="4" fill="#1f1f38" stroke="none" stroke-width="0"/>
<circle cx="36" cy="282" r="13" fill="#d4af37"/>
<text x="36" y="287" text-anchor="middle" font-family="Inter,sans-serif" font-size="12" font-weight="800" fill="#1a1a2e">B</text>
<text x="58" y="287" font-family="Inter,sans-serif" font-size="13" fill="#f0e6d3" >vi</text>
<rect x="14" y="306" width="532" height="36" rx="4" fill="#1f1f38" stroke="none" stroke-width="0"/>
<circle cx="36" cy="324" r="13" fill="#d4af37"/>
<text x="36" y="329" text-anchor="middle" font-family="Inter,sans-serif" font-size="12" font-weight="800" fill="#1a1a2e">C</text>
<text x="58" y="329" font-family="Inter,sans-serif" font-size="13" fill="#f0e6d3" >caos</text>
<rect x="14" y="348" width="532" height="36" rx="4" fill="#1a2e26" stroke="#4ec27e" stroke-width="1"/>
<circle cx="36" cy="366" r="13" fill="#4ec27e"/>
<text x="36" y="371" text-anchor="middle" font-family="Inter,sans-serif" font-size="12" font-weight="800" fill="#1a1a2e">D</text>
<text x="58" y="371" font-family="Inter,sans-serif" font-size="13" fill="#d4af37" font-weight="700">ve</text>
<text x="525" y="371" text-anchor="end" font-family="Inter,sans-serif" font-size="14" fill="#4ec27e" font-weight="800">✓</text>
<rect x="14" y="396" width="532" height="32" rx="4" fill="#1a2e26" stroke="#4ec27e" stroke-width="1"/><rect x="14" y="396" width="3" height="32" rx="1.5" fill="#4ec27e"/>
<text x="26" y="416" font-family="Inter,sans-serif" font-size="12" fill="#b6e6c8" font-weight="800">✓ ANSWER: D —</text>
<text x="170" y="416" font-family="Georgia,serif" font-size="13" fill="#f0e6d3" font-weight="700">ve</text>
<rect x="14" y="438" width="532" height="58" rx="4" fill="#1f1f38"/><rect x="14" y="438" width="3" height="58" rx="1.5" fill="#d4af37"/>
<text x="26" y="454" font-family="Inter,sans-serif" font-size="10" fill="#d4af37" font-weight="800" letter-spacing="2">— CORE LOGIC —</text>
<text x="26" y="472" font-family="Georgia,serif" font-size="12" fill="#f0e6d3">The third-person singular present indicative matches the subject</text>
<text x="26" y="488" font-family="Georgia,serif" font-size="12" fill="#f0e6d3">performing the active visual perception of external objects.</text>
<rect x="14" y="504" width="532" height="58" rx="4" fill="#1f1f38"/><rect x="14" y="504" width="3" height="58" rx="1.5" fill="#c9b037"/>
<text x="26" y="520" font-family="Inter,sans-serif" font-size="10" fill="#c9b037" font-weight="800" letter-spacing="2">— MEMORY AID —</text>
<text x="26" y="538" font-family="Georgia,serif" font-size="12" fill="#f0e6d3">Latin videre is the root of video and vision which relate to</text>
<text x="26" y="554" font-family="Georgia,serif" font-size="12" fill="#f0e6d3">sight.</text>
<rect x="14" y="574" width="73.8" height="22" rx="4" fill="#1f1f38" stroke="#c9b037" stroke-width="0.7"/>
<text x="21" y="589" font-family="Inter,sans-serif" font-size="9" fill="#c9b037" font-weight="700" letter-spacing="0.8">RANK:</text>
<text x="52.8" y="589" font-family="Inter,sans-serif" font-size="10" fill="#f0e6d3">252</text>
<rect x="93.8" y="574" width="74.6" height="22" rx="4" fill="#1f1f38" stroke="#c9b037" stroke-width="0.7"/>
<text x="100.8" y="589" font-family="Inter,sans-serif" font-size="9" fill="#c9b037" font-weight="700" letter-spacing="0.8">POS:</text>
<text x="126.4" y="589" font-family="Inter,sans-serif" font-size="10" fill="#f0e6d3">VERB</text>
<rect x="174.39999999999998" y="574" width="66.8" height="22" rx="4" fill="#1f1f38" stroke="#c9b037" stroke-width="0.7"/>
<text x="181.39999999999998" y="589" font-family="Inter,sans-serif" font-size="9" fill="#c9b037" font-weight="700" letter-spacing="0.8">LANG:</text>
<text x="213.2" y="589" font-family="Inter,sans-serif" font-size="10" fill="#f0e6d3">ES</text>
  </g>
</svg>
